<?xml version="1.0" encoding="utf-8"?>
<!-- Generator: Adobe Illustrator 21.0.2, SVG Export Plug-In . SVG Version: 6.00 Build 0)  -->
<svg version="1.1" id="Calque_1" xmlns="http://www.w3.org/2000/svg" xmlns:xlink="http://www.w3.org/1999/xlink" x="0px" y="0px"
	 viewBox="0 0 1115.9 201" style="enable-background:new 0 0 1115.9 201;" xml:space="preserve">
<style type="text/css">
	.st0{fill:#020203;}
	.st1{fill:#BA9E6C;}
</style>
<g>
	<g>
		<path class="st0" d="M9.2,15.7h18.9l57.5,134.2l58.5-134.2h18.9L87.5,189.3h-3.8L9.2,15.7z"/>
		<path class="st0" d="M189.7,15.7h17.4v173.6h-17.4V15.7z"/>
		<path class="st1" d="M374.5,15.7h18.9l57.5,134.2l58.5-134.2h18.9l-75.5,173.6H449L374.5,15.7z"/>
		<path class="st0" d="M628.1,11.3c26.3,0,48.3,8.8,66,26.3c17.7,17.5,26.6,39.2,26.6,64.8c0,25.4-8.8,47-26.5,64.7
			c-17.7,17.7-39.2,26.6-64.7,26.6c-25.8,0-47.5-8.8-65.2-26.4c-17.7-17.6-26.6-39-26.6-64c0-16.7,4-32.1,12.1-46.4
			c8.1-14.2,19.1-25.4,33-33.5C596.8,15.3,611.9,11.3,628.1,11.3z M628.9,28.2c-12.8,0-25,3.3-36.5,10c-11.5,6.7-20.5,15.7-27,27.1
			c-6.5,11.3-9.7,24-9.7,37.9c0,20.6,7.2,38.1,21.5,52.3c14.3,14.2,31.5,21.3,51.7,21.3c13.5,0,26-3.3,37.4-9.8s20.4-15.5,26.8-26.8
			c6.4-11.3,9.6-23.9,9.6-37.8c0-13.8-3.2-26.2-9.6-37.4c-6.4-11.1-15.5-20.1-27.1-26.8C654.4,31.5,642,28.2,628.9,28.2z"/>
		<path class="st0" d="M753.1,15.7h17.4v173.6h-17.4V15.7z"/>
		<path class="st0" d="M972,47.9l-13.7,10.5c-7.6-9.8-16.6-17.3-27.2-22.4c-10.6-5.1-22.2-7.6-34.9-7.6c-13.9,0-26.7,3.3-38.5,10
			c-11.8,6.7-21,15.6-27.4,26.8s-9.7,23.8-9.7,37.8c0,21.2,7.3,38.8,21.8,53c14.5,14.2,32.8,21.2,55,21.2c24.3,0,44.7-9.5,61-28.6
			l13.7,10.4c-8.7,11-19.5,19.5-32.4,25.6c-12.9,6-27.4,9-43.4,9c-30.4,0-54.3-10.1-71.9-30.3c-14.7-17.1-22.1-37.7-22.1-61.9
			c0-25.4,8.9-46.8,26.7-64.2c17.8-17.4,40.2-26,67-26c16.2,0,30.8,3.2,43.9,9.6C952.9,27.3,963.6,36.3,972,47.9z"/>
		<path class="st0" d="M1006.9,15.7h99.5v17h-82.2v54.4h81.5v17h-81.5v68.2h81.5v17h-98.8V15.7z"/>
	</g>
</g>
<polygon class="st1" points="319.8,16.7 315.6,16.7 233.5,190.3 252.9,190.3 279.9,133.2 317.6,53.5 354.7,133.2 382.1,190.3 
	400.8,190.3 "/>
</svg>
